<?xml version="1.0" encoding="utf-8"?>
<!-- Generator: Adobe Illustrator 23.0.0, SVG Export Plug-In . SVG Version: 6.00 Build 0)  -->
<svg version="1.1" id="Layer_1" xmlns="http://www.w3.org/2000/svg" xmlns:xlink="http://www.w3.org/1999/xlink" x="0px" y="0px"
	 viewBox="0 0 1024 1024" style="enable-background:new 0 0 1024 1024;" xml:space="preserve">
<style type="text/css">
	.st0{fill:#AD6F53;}
	.st1{clip-path:url(#SVGID_2_);}
	.st2{fill:#FBA477;}
	.st3{fill:#FF5700;}
	.st4{fill:#664131;}
	.st5{fill:#F9F8EB;}
</style>
<title>profile</title>
<circle class="st0" cx="512" cy="512" r="512"/>
<g>
	<defs>
		<circle id="SVGID_1_" cx="512" cy="512" r="512"/>
	</defs>
	<clipPath id="SVGID_2_">
		<use xlink:href="#SVGID_1_"  style="overflow:visible;"/>
	</clipPath>
	<g class="st1">
		<path class="st2" d="M512,834c-36.3,0.1-72.2-7.9-105-23.4V894h210v-83.4C584.2,826.1,548.3,834.1,512,834z"/>
		<path class="st0" d="M407,744v66.6c32.8,15.5,68.7,23.5,105,23.4l0,0c36.3,0.1,72.2-7.9,105-23.4V744H407z"/>
		<path class="st3" d="M727,854H617l-83.7,81.4c-11.9,11.5-30.8,11.5-42.7,0L407,854H297c-46.9,0-85,38.1-85,85l0,0l0,0
			c0,46.9,38.1,85,85,85l0,0h430c46.9,0,85-38.1,85-85l0,0l0,0C812,892.1,773.9,854,727,854L727,854z"/>
		<path class="st2" d="M533.3,935.4L617,854H407l83.7,81.4C502.6,946.9,521.4,946.9,533.3,935.4z"/>
	</g>
</g>
<circle class="st2" cx="737" cy="500" r="50"/>
<circle class="st0" cx="737" cy="500" r="25"/>
<circle class="st2" cx="287" cy="500" r="50"/>
<circle class="st0" cx="287" cy="500" r="25"/>
<path class="st2" d="M512,200L512,200c124.3,0,225,100.7,225,225v150c0,124.3-100.7,225-225,225l0,0c-124.3,0-225-100.7-225-225V425
	C287,300.7,387.7,200,512,200z"/>
<path class="st4" d="M412,460L412,460c8.3,0,15,6.7,15,15v20c0,8.3-6.7,15-15,15l0,0c-8.3,0-15-6.7-15-15v-20
	C397,466.7,403.7,460,412,460z"/>
<path class="st4" d="M612,460L612,460c8.3,0,15,6.7,15,15v20c0,8.3-6.7,15-15,15l0,0c-8.3,0-15-6.7-15-15v-20
	C597,466.7,603.7,460,612,460z"/>
<path class="st4" d="M442.6,675c38.7-37.3,100-37.3,138.8,0c15.1-14.5,25.2-33.4,29-54H413.6C417.4,641.6,427.5,660.5,442.6,675z"/>
<path class="st3" d="M512,647c25.9,0,50.8,10,69.4,28c-38.7,37.3-100,37.3-138.8,0C461.2,657,486.1,647,512,647z"/>
<path class="st5" d="M412,603c0,6,0.5,12.1,1.6,18h196.8c1.1-5.9,1.6-12,1.6-18H412z"/>
<path class="st0" d="M526.3,558h-28.5c-4.1,0-7.5-3.4-7.5-7.5c0-0.5,0.1-1,0.2-1.5l13-65c0.8-4.1,4.8-6.7,8.9-5.9
	c4.1,0.8,6.7,4.8,5.8,8.9l-11.2,56h19.3c4.1,0,7.5,3.4,7.5,7.5S530.4,558,526.3,558L526.3,558z"/>
<path class="st0" d="M599.5,403h25c4.1,0,7.5,3.4,7.5,7.5l0,0c0,4.1-3.4,7.5-7.5,7.5h-25c-4.1,0-7.5-3.4-7.5-7.5l0,0
	C592,406.4,595.4,403,599.5,403z"/>
<path class="st0" d="M399.5,403h25c4.1,0,7.5,3.4,7.5,7.5l0,0c0,4.1-3.4,7.5-7.5,7.5h-25c-4.1,0-7.5-3.4-7.5-7.5l0,0
	C392,406.4,395.4,403,399.5,403z"/>
<path class="st4" d="M691.5,230H332.5c-36.2,0-65.5,29.3-65.5,65.5v158.9c0,18,7.4,35.2,20.5,47.6c7.7-117.3,105.3-210,224.5-210
	l0,0c119.2,0,216.8,92.8,224.5,210c13.1-12.4,20.5-29.6,20.5-47.6V295.5C757,259.3,727.7,230,691.5,230z"/>
<path class="st4" d="M415,180h300c35.9,0,65,29.1,65,65v30c0,35.9-29.1,65-65,65H415c-35.9,0-65-29.1-65-65v-30
	C350,209.1,379.1,180,415,180z"/>
<path class="st4" d="M348.6,284.3c-6.1,0-11-4.9-11-11c0-23.1-5.8-40-17.3-50.4c-15.2-13.8-36.1-12-36.3-11.9
	c-6,0.7-11.5-3.6-12.2-9.7c-0.7-6,3.6-11.5,9.7-12.2c0.1,0,0.2,0,0.3,0c1.2-0.1,30.5-3,53.1,17.3c16.4,14.7,24.7,37.3,24.7,66.9
	C359.6,279.4,354.7,284.3,348.6,284.3z"/>
<path class="st4" d="M349,267c-5.5,0-10.1-4.1-10.9-9.5c-0.4-3.3-10.4-80.6,28.1-111.1c4.9-3.7,11.8-2.7,15.4,2.2
	c3.5,4.7,2.8,11.3-1.7,15c-23.8,18.9-22.5,72-19.9,90.9c0.8,6-3.4,11.6-9.4,12.4C350,267,349.5,267,349,267z"/>
</svg>
